<?xml version="1.0" encoding="UTF-8"?>
<svg width="15px" height="15px" viewBox="0 0 15 15" version="1.1" xmlns="http://www.w3.org/2000/svg" xmlns:xlink="http://www.w3.org/1999/xlink">
    <!-- Generator: Sketch 42 (36781) - http://www.bohemiancoding.com/sketch -->
    <title>Drag Copy</title>
    <desc>Created with Sketch.</desc>
    <defs></defs>
    <g id="Page-1" stroke="none" stroke-width="1" fill="none" fill-rule="evenodd">
        <g id="Drag-Copy" fill="#4D4D4D">
            <polygon id="Shape" points="3.57599838 9.48548724 5.12410627e-15 7.27321705 3.57599838 5.03064179 3.57599838 6.30483812 6.03070914 6.30483812 6.21253956 6.30483812 6.30483812 6.30483812 6.30483812 3.57599838 5.03064179 3.57599838 7.27321705 0 9.48548724 3.57599838 8.24032199 3.57599838 8.24032199 6.30483812 10.9704357 6.30483812 10.9704357 5.03064179 14.5464341 7.27321705 10.9704357 9.48548724 10.9704357 8.24032199 8.24032199 8.24032199 8.24032199 8.33389454 8.24032199 8.51572496 8.24032199 10.9704357 9.48548724 10.9704357 7.27321705 14.516129 5.03064179 10.9704357 6.30483812 10.9704357 6.30483812 8.51572496 6.30483812 8.33389454 6.30483812 8.24032199 6.21253956 8.24032199 6.03070914 8.24032199 3.57599838 8.24032199"></polygon>
        </g>
    </g>
</svg>